Coordinates
version=1
nRows=9
nColumns=24
inDegrees=yes

Units are S.I. units (second, meters, Newtons, ...)
Angles are in degrees.

endheader
time	pelvis_tilt	pelvis_list	pelvis_rotation	pelvis_tx	pelvis_ty	pelvis_tz	hip_flexion_r	hip_adduction_r	hip_rotation_r	knee_angle_r	ankle_angle_r	subtalar_angle_r	mtp_angle_r	hip_flexion_l	hip_adduction_l	hip_rotation_l	knee_angle_l	ankle_angle_l	subtalar_angle_l	mtp_angle_l	lumbar_extension	lumbar_bending	lumbar_rotation
      6.25000000	     -4.10473556	      0.55764654	     -0.69493938	     -1.41536001	      0.67079357	      0.14142536	     16.12775033	      6.09320663	     11.64738835	    -13.60979661	      8.24014650	    -12.57467625	      0.00000000	     14.15824888	     -0.48347367	     -4.04166880	    -64.02291709	     -5.72091332	    -18.85206077	      0.00000000	    -11.56241447	      0.17386342	     -5.95945923
      6.26000000	     -4.19659067	      1.13237131	     -1.58278380	     -1.40708845	      0.67269096	      0.14324091	     15.02117370	      5.67637701	     12.31156104	    -12.75930745	      8.65753044	    -11.92520621	      0.00000000	     15.74312204	      0.08183722	     -4.68274579	    -63.93883090	     -4.10633239	    -19.33389514	      0.00000000	    -11.46470120	     -0.55523512	     -5.56289689
      6.27000000	     -4.24541080	      1.64649663	     -2.39647514	     -1.39887628	      0.67441563	      0.14490083	     13.92853932	      5.26607285	     12.83529191	    -11.97613025	      9.04231389	    -11.35877948	      0.00000000	     17.21386964	      0.58174648	     -5.20892035	    -63.53375933	     -2.69291633	    -19.89302053	      0.00000000	    -11.43746329	     -1.16182162	     -5.32620444
      6.28000000	     -4.28009218	      2.10764765	     -3.14211049	     -1.39074328	      0.67593362	      0.14646191	     12.86928104	      4.86935497	     13.29615991	    -11.25647392	      9.49649837	    -10.65080915	      0.00000000	     18.60148580	      1.04160364	     -5.58558822	    -62.82775653	     -1.50333385	    -20.47129088	      0.00000000	    -11.45856242	     -1.69942152	     -5.13511329
      6.29000000	     -4.25791011	      2.46315097	     -3.80592647	     -1.38267914	      0.67724376	      0.14784158	     11.86536863	      4.52440315	     13.35809460	    -10.72945012	     10.22912988	     -9.50177636	      0.00000000	     19.85574969	      1.41549634	     -5.83519665	    -61.83644472	     -0.62273533	    -21.56969858	      0.00000000	    -11.57500162	     -2.06859137	     -5.10174004
      6.30000000	     -4.25206043	      2.74539089	     -4.45947487	     -1.37466456	      0.67826246	      0.14920984	     10.86701770	      4.26332519	     13.74176942	    -10.18876438	     10.69449636	     -8.94425760	      0.00000000	     21.05204707	      1.69174843	     -6.03348063	    -60.60023548	      0.13223812	    -22.78163008	      0.00000000	    -11.67722662	     -2.36080987	     -5.03607667
      6.31000000	     -4.18909272	      2.92964753	     -5.05089986	     -1.36665209	      0.67910133	      0.15046239	      9.87586527	      4.07368368	     13.93421351	     -9.78848365	     11.27284048	     -8.21522581	      0.00000000	     22.07766697	      1.91182933	     -6.08763901	    -59.05116086	      0.37946377	    -24.71927843	      0.00000000	    -11.83980261	     -2.52089445	     -5.05509531
      6.32000000	     -4.14889263	      3.01776494	     -5.62877937	     -1.35868883	      0.67964721	      0.15166905	      8.94318891	      3.98555751	     14.18620782	     -9.46694278	     11.89075330	     -7.61923656	      0.00000000	     23.05182489	      2.02649663	     -6.07220465	    -57.30032953	      0.47808570	    -26.80902487	      0.00000000	    -11.98082542	     -2.57066907	     -5.02347242
      6.33000000	     -4.10994435	      3.03107172	     -6.15279434	     -1.35073010	      0.67996569	      0.15279127	      8.05701606	      3.96570369	     14.35516016	     -9.24048997	     12.48164245	     -7.07406519	      0.00000000	     23.92801410	      2.08345951	     -5.95309326	    -55.30788617	      0.28844627	    -29.14012179	      0.00000000	    -12.11309935	     -2.52418782	     -5.04863735
